<svg id="Layer_1" data-name="Layer 1" xmlns="http://www.w3.org/2000/svg" viewBox="0 0 48 48"><defs><style>.cls-1{fill:#f26674;}.cls-2{fill:#ffba55;}.cls-3{fill:#9fd367;}.cls-4{fill:#72aaed;}.cls-5{fill:#ffde76;}</style></defs><title>rainbow, weather, forecast, spring, sun, sunny</title><path class="cls-1" d="M47.64,45.67v2H35.82v-2a11.82,11.82,0,0,0-23.64,0v2H.36v-2a23.64,23.64,0,0,1,47.28,0Z"/><path class="cls-2" d="M44.68,45.67v2H35.82v-2a11.82,11.82,0,0,0-23.64,0v2H3.32v-2a20.68,20.68,0,1,1,41.36,0Z"/><path class="cls-3" d="M41.73,45.67v2H35.82v-2a11.82,11.82,0,0,0-23.64,0v2H6.27v-2a17.73,17.73,0,1,1,35.46,0Z"/><path class="cls-4" d="M38.77,45.61v2h-3v-2a11.82,11.82,0,0,0-23.64,0v2H9.23v-2A14.72,14.72,0,0,1,23.94,30.89h.12A14.72,14.72,0,0,1,38.77,45.61Z"/><circle class="cls-5" cx="23.02" cy="10.21" r="4.92"/><rect class="cls-5" x="22.03" y="17.11" width="1.97" height="2.95"/><rect class="cls-5" x="22.03" y="0.36" width="1.97" height="2.95"/><rect class="cls-5" x="13.66" y="8.73" width="1.97" height="2.95" transform="translate(24.86 -4.43) rotate(90)"/><rect class="cls-5" x="30.4" y="8.73" width="1.97" height="2.95" transform="translate(41.6 -21.17) rotate(90)"/><rect class="cls-5" x="16.11" y="14.65" width="1.97" height="2.95" transform="translate(16.41 -7.36) rotate(45)"/><rect class="cls-5" x="27.95" y="2.82" width="1.97" height="2.95" transform="translate(11.51 -19.2) rotate(45)"/><rect class="cls-5" x="16.11" y="2.82" width="1.97" height="2.95" transform="translate(32.22 -4.76) rotate(135)"/><rect class="cls-5" x="27.95" y="14.65" width="1.97" height="2.95" transform="translate(60.8 7.08) rotate(135)"/></svg>
